<?xml version="1.0" encoding="UTF-8" standalone="no"?>
<!DOCTYPE svg PUBLIC "-//W3C//DTD SVG 1.1//EN"
 "http://www.w3.org/Graphics/SVG/1.1/DTD/svg11.dtd">
<!-- Generated by graphviz version 2.44.1 (20200629.0800)
 -->
<!-- Title: G Pages: 1 -->
<svg width="765pt" height="691pt"
 viewBox="0.00 0.00 765.00 691.00" xmlns="http://www.w3.org/2000/svg" xmlns:xlink="http://www.w3.org/1999/xlink">
<g id="graph0" class="graph" transform="scale(1 1) rotate(0) translate(4 687)">
<title>G</title>
<polygon fill="white" stroke="transparent" points="-4,4 -4,-687 761,-687 761,4 -4,4"/>
<g id="clust1" class="cluster">
<title>cluster_G</title>
<path fill="#808080" fill-opacity="0.094118" stroke="black" d="M20,-8C20,-8 737,-8 737,-8 743,-8 749,-14 749,-20 749,-20 749,-663 749,-663 749,-669 743,-675 737,-675 737,-675 20,-675 20,-675 14,-675 8,-669 8,-663 8,-663 8,-20 8,-20 8,-14 14,-8 20,-8"/>
</g>
<g id="clust2" class="cluster">
<title>cluster_detection__detect</title>
<path fill="#808080" fill-opacity="0.094118" stroke="black" d="M28,-16C28,-16 729,-16 729,-16 735,-16 741,-22 741,-28 741,-28 741,-655 741,-655 741,-661 735,-667 729,-667 729,-667 28,-667 28,-667 22,-667 16,-661 16,-655 16,-655 16,-28 16,-28 16,-22 22,-16 28,-16"/>
<text text-anchor="middle" x="378.5" y="-651.8" font-family="Times New Roman,serif" font-size="14.00">detection.detect</text>
</g>
<!-- detection__detect__closest_peak -->
<g id="node1" class="node">
<title>detection__detect__closest_peak</title>
<ellipse fill="#ff9999" fill-opacity="0.698039" stroke="black" cx="166" cy="-186" rx="57.69" ry="18"/>
<text text-anchor="middle" x="166" y="-182.3" font-family="Times New Roman,serif" font-size="14.00" fill="#000000">closest_peak</text>
</g>
<!-- detection__detect__detect -->
<g id="node2" class="node">
<title>detection__detect__detect</title>
<ellipse fill="#ff9999" fill-opacity="0.698039" stroke="black" cx="166" cy="-114" rx="32.49" ry="18"/>
<text text-anchor="middle" x="166" y="-110.3" font-family="Times New Roman,serif" font-size="14.00" fill="#000000">detect</text>
</g>
<!-- detection__detect__closest_peak&#45;&gt;detection__detect__detect -->
<g id="edge3" class="edge">
<title>detection__detect__closest_peak&#45;&gt;detection__detect__detect</title>
<path fill="none" stroke="#000000" d="M166,-167.7C166,-159.98 166,-150.71 166,-142.11"/>
<polygon fill="#000000" stroke="#000000" points="169.5,-142.1 166,-132.1 162.5,-142.1 169.5,-142.1"/>
</g>
<!-- detection__detect__detect_handle_en_patterns -->
<g id="node9" class="node">
<title>detection__detect__detect_handle_en_patterns</title>
<ellipse fill="#ff9999" fill-opacity="0.698039" stroke="black" cx="149" cy="-42" rx="107.78" ry="18"/>
<text text-anchor="middle" x="149" y="-38.3" font-family="Times New Roman,serif" font-size="14.00" fill="#000000">detect_handle_en_patterns</text>
</g>
<!-- detection__detect__detect&#45;&gt;detection__detect__detect_handle_en_patterns -->
<g id="edge2" class="edge">
<title>detection__detect__detect&#45;&gt;detection__detect__detect_handle_en_patterns</title>
<path fill="none" stroke="#000000" d="M161.88,-96.05C159.99,-88.26 157.7,-78.82 155.58,-70.08"/>
<polygon fill="#000000" stroke="#000000" points="158.96,-69.17 153.2,-60.28 152.15,-70.82 158.96,-69.17"/>
</g>
<!-- detection__detect__detect_return_result -->
<g id="node11" class="node">
<title>detection__detect__detect_return_result</title>
<ellipse fill="#ff9999" fill-opacity="0.698039" stroke="black" cx="358" cy="-42" rx="83.39" ry="18"/>
<text text-anchor="middle" x="358" y="-38.3" font-family="Times New Roman,serif" font-size="14.00" fill="#000000">detect_return_result</text>
</g>
<!-- detection__detect__detect&#45;&gt;detection__detect__detect_return_result -->
<g id="edge1" class="edge">
<title>detection__detect__detect&#45;&gt;detection__detect__detect_return_result</title>
<path fill="none" stroke="#000000" d="M192.29,-103.41C221.9,-92.62 270.69,-74.83 307.68,-61.35"/>
<polygon fill="#000000" stroke="#000000" points="309.09,-64.56 317.29,-57.84 306.7,-57.98 309.09,-64.56"/>
</g>
<!-- detection__detect__detect_2sides -->
<g id="node3" class="node">
<title>detection__detect__detect_2sides</title>
<ellipse fill="#ff9999" fill-opacity="0.698039" stroke="black" cx="191" cy="-258" rx="60.39" ry="18"/>
<text text-anchor="middle" x="191" y="-254.3" font-family="Times New Roman,serif" font-size="14.00" fill="#000000">detect_2sides</text>
</g>
<!-- detection__detect__detect_2sides&#45;&gt;detection__detect__closest_peak -->
<g id="edge4" class="edge">
<title>detection__detect__detect_2sides&#45;&gt;detection__detect__closest_peak</title>
<path fill="none" stroke="#000000" d="M184.95,-240.05C182.13,-232.18 178.72,-222.62 175.57,-213.79"/>
<polygon fill="#000000" stroke="#000000" points="178.83,-212.52 172.17,-204.28 172.24,-214.87 178.83,-212.52"/>
</g>
<!-- detection__detect__detect_BGA_params -->
<g id="node4" class="node">
<title>detection__detect__detect_BGA_params</title>
<ellipse fill="#ff9999" fill-opacity="0.698039" stroke="black" cx="424" cy="-618" rx="87.99" ry="18"/>
<text text-anchor="middle" x="424" y="-614.3" font-family="Times New Roman,serif" font-size="14.00" fill="#000000">detect_BGA_params</text>
</g>
<!-- detection__detect__detect_all -->
<g id="node5" class="node">
<title>detection__detect__detect_all</title>
<ellipse fill="#ff9999" fill-opacity="0.698039" stroke="black" cx="424" cy="-546" rx="45.49" ry="18"/>
<text text-anchor="middle" x="424" y="-542.3" font-family="Times New Roman,serif" font-size="14.00" fill="#000000">detect_all</text>
</g>
<!-- detection__detect__detect_BGA_params&#45;&gt;detection__detect__detect_all -->
<g id="edge18" class="edge">
<title>detection__detect__detect_BGA_params&#45;&gt;detection__detect__detect_all</title>
<path fill="none" stroke="#000000" d="M424,-599.7C424,-591.98 424,-582.71 424,-574.11"/>
<polygon fill="#000000" stroke="#000000" points="427.5,-574.1 424,-564.1 420.5,-574.1 427.5,-574.1"/>
</g>
<!-- detection__detect__detect_common -->
<g id="node6" class="node">
<title>detection__detect__detect_common</title>
<ellipse fill="#ff9999" fill-opacity="0.698039" stroke="black" cx="94" cy="-474" rx="69.59" ry="18"/>
<text text-anchor="middle" x="94" y="-470.3" font-family="Times New Roman,serif" font-size="14.00" fill="#000000">detect_common</text>
</g>
<!-- detection__detect__detect_all&#45;&gt;detection__detect__detect_common -->
<g id="edge16" class="edge">
<title>detection__detect__detect_all&#45;&gt;detection__detect__detect_common</title>
<path fill="none" stroke="#000000" d="M384.7,-536.83C335.1,-526.49 247.19,-508.1 172,-492 166.58,-490.84 160.95,-489.63 155.3,-488.41"/>
<polygon fill="#000000" stroke="#000000" points="155.69,-484.91 145.18,-486.21 154.21,-491.75 155.69,-484.91"/>
</g>
<!-- detection__detect__filter_detection_ids -->
<g id="node12" class="node">
<title>detection__detect__filter_detection_ids</title>
<ellipse fill="#ff9999" fill-opacity="0.698039" stroke="black" cx="262" cy="-474" rx="80.69" ry="18"/>
<text text-anchor="middle" x="262" y="-470.3" font-family="Times New Roman,serif" font-size="14.00" fill="#000000">filter_detection_ids</text>
</g>
<!-- detection__detect__detect_all&#45;&gt;detection__detect__filter_detection_ids -->
<g id="edge14" class="edge">
<title>detection__detect__detect_all&#45;&gt;detection__detect__filter_detection_ids</title>
<path fill="none" stroke="#000000" d="M394.29,-532.16C369.86,-521.6 334.85,-506.48 306.98,-494.44"/>
<polygon fill="#000000" stroke="#000000" points="308.02,-491.07 297.45,-490.32 305.25,-497.5 308.02,-491.07"/>
</g>
<!-- detection__detect__filter_elements -->
<g id="node13" class="node">
<title>detection__detect__filter_elements</title>
<ellipse fill="#ff9999" fill-opacity="0.698039" stroke="black" cx="424" cy="-474" rx="63.09" ry="18"/>
<text text-anchor="middle" x="424" y="-470.3" font-family="Times New Roman,serif" font-size="14.00" fill="#000000">filter_elements</text>
</g>
<!-- detection__detect__detect_all&#45;&gt;detection__detect__filter_elements -->
<g id="edge12" class="edge">
<title>detection__detect__detect_all&#45;&gt;detection__detect__filter_elements</title>
<path fill="none" stroke="#000000" d="M424,-527.7C424,-519.98 424,-510.71 424,-502.11"/>
<polygon fill="#000000" stroke="#000000" points="427.5,-502.1 424,-492.1 420.5,-502.1 427.5,-502.1"/>
</g>
<!-- detection__detect__load_classifier -->
<g id="node14" class="node">
<title>detection__detect__load_classifier</title>
<ellipse fill="#ff9999" fill-opacity="0.698039" stroke="black" cx="568" cy="-474" rx="63.09" ry="18"/>
<text text-anchor="middle" x="568" y="-470.3" font-family="Times New Roman,serif" font-size="14.00" fill="#000000">load_classifier</text>
</g>
<!-- detection__detect__detect_all&#45;&gt;detection__detect__load_classifier -->
<g id="edge13" class="edge">
<title>detection__detect__detect_all&#45;&gt;detection__detect__load_classifier</title>
<path fill="none" stroke="#000000" d="M451.76,-531.5C473.48,-520.95 503.97,-506.13 528.27,-494.31"/>
<polygon fill="#000000" stroke="#000000" points="530.12,-497.31 537.58,-489.79 527.06,-491.01 530.12,-497.31"/>
</g>
<!-- detection__detect__tune_det -->
<g id="node16" class="node">
<title>detection__detect__tune_det</title>
<ellipse fill="#ff9999" fill-opacity="0.698039" stroke="black" cx="691" cy="-474" rx="42.49" ry="18"/>
<text text-anchor="middle" x="691" y="-470.3" font-family="Times New Roman,serif" font-size="14.00" fill="#000000">tune_det</text>
</g>
<!-- detection__detect__detect_all&#45;&gt;detection__detect__tune_det -->
<g id="edge15" class="edge">
<title>detection__detect__detect_all&#45;&gt;detection__detect__tune_det</title>
<path fill="none" stroke="#000000" d="M462.88,-536.46C506.32,-526.69 578.61,-509.73 640,-492 643.14,-491.09 646.37,-490.12 649.62,-489.11"/>
<polygon fill="#000000" stroke="#000000" points="650.84,-492.39 659.29,-486.01 648.7,-485.72 650.84,-492.39"/>
</g>
<!-- detection__detect__detect_common_handle_detect -->
<g id="node7" class="node">
<title>detection__detect__detect_common_handle_detect</title>
<ellipse fill="#ff9999" fill-opacity="0.698039" stroke="black" cx="149" cy="-402" rx="124.58" ry="18"/>
<text text-anchor="middle" x="149" y="-398.3" font-family="Times New Roman,serif" font-size="14.00" fill="#000000">detect_common_handle_detect</text>
</g>
<!-- detection__detect__detect_common&#45;&gt;detection__detect__detect_common_handle_detect -->
<g id="edge7" class="edge">
<title>detection__detect__detect_common&#45;&gt;detection__detect__detect_common_handle_detect</title>
<path fill="none" stroke="#000000" d="M107.31,-456.05C113.84,-447.75 121.83,-437.58 129.06,-428.38"/>
<polygon fill="#000000" stroke="#000000" points="132,-430.3 135.43,-420.28 126.5,-425.98 132,-430.3"/>
</g>
<!-- detection__detect__detect_common_return_elements -->
<g id="node8" class="node">
<title>detection__detect__detect_common_return_elements</title>
<ellipse fill="#ff9999" fill-opacity="0.698039" stroke="black" cx="365" cy="-330" rx="131.88" ry="18"/>
<text text-anchor="middle" x="365" y="-326.3" font-family="Times New Roman,serif" font-size="14.00" fill="#000000">detect_common_return_elements</text>
</g>
<!-- detection__detect__detect_common&#45;&gt;detection__detect__detect_common_return_elements -->
<g id="edge8" class="edge">
<title>detection__detect__detect_common&#45;&gt;detection__detect__detect_common_return_elements</title>
<path fill="none" stroke="#000000" d="M145.79,-461.83C193.43,-450.96 260.05,-434.07 283,-420 309.65,-403.67 333.01,-376.27 347.91,-356.17"/>
<polygon fill="#000000" stroke="#000000" points="350.75,-358.22 353.77,-348.06 345.08,-354.13 350.75,-358.22"/>
</g>
<!-- detection__detect__detect_common_handle_detect&#45;&gt;detection__detect__detect -->
<g id="edge10" class="edge">
<title>detection__detect__detect_common_handle_detect&#45;&gt;detection__detect__detect</title>
<path fill="none" stroke="#000000" d="M112.3,-384.61C97.59,-375.98 82.21,-363.86 74,-348 66.64,-333.79 72.63,-327.94 74,-312 79.58,-247.28 65.79,-223.82 99,-168 107.56,-153.61 121.61,-141.6 134.64,-132.67"/>
<polygon fill="#000000" stroke="#000000" points="136.92,-135.36 143.41,-126.99 133.12,-129.49 136.92,-135.36"/>
</g>
<!-- detection__detect__detect_multipin -->
<g id="node10" class="node">
<title>detection__detect__detect_multipin</title>
<ellipse fill="#ff9999" fill-opacity="0.698039" stroke="black" cx="149" cy="-330" rx="66.09" ry="18"/>
<text text-anchor="middle" x="149" y="-326.3" font-family="Times New Roman,serif" font-size="14.00" fill="#000000">detect_multipin</text>
</g>
<!-- detection__detect__detect_common_handle_detect&#45;&gt;detection__detect__detect_multipin -->
<g id="edge11" class="edge">
<title>detection__detect__detect_common_handle_detect&#45;&gt;detection__detect__detect_multipin</title>
<path fill="none" stroke="#000000" d="M149,-383.7C149,-375.98 149,-366.71 149,-358.11"/>
<polygon fill="#000000" stroke="#000000" points="152.5,-358.1 149,-348.1 145.5,-358.1 152.5,-358.1"/>
</g>
<!-- detection__detect__detect_common_return_elements&#45;&gt;detection__detect__detect -->
<g id="edge9" class="edge">
<title>detection__detect__detect_common_return_elements&#45;&gt;detection__detect__detect</title>
<path fill="none" stroke="#000000" d="M352.97,-312.01C330.97,-281.5 281.98,-216.13 233,-168 220.88,-156.09 206.19,-144.23 193.66,-134.75"/>
<polygon fill="#000000" stroke="#000000" points="195.5,-131.76 185.38,-128.6 191.32,-137.38 195.5,-131.76"/>
</g>
<!-- detection__detect__detect_multipin&#45;&gt;detection__detect__closest_peak -->
<g id="edge5" class="edge">
<title>detection__detect__detect_multipin&#45;&gt;detection__detect__closest_peak</title>
<path fill="none" stroke="#000000" d="M137.36,-312.1C126.45,-294.07 113.06,-264.76 122,-240 125.92,-229.15 133.13,-218.95 140.6,-210.45"/>
<polygon fill="#000000" stroke="#000000" points="143.15,-212.84 147.44,-203.16 138.05,-208.06 143.15,-212.84"/>
</g>
<!-- detection__detect__detect_multipin&#45;&gt;detection__detect__detect_2sides -->
<g id="edge6" class="edge">
<title>detection__detect__detect_multipin&#45;&gt;detection__detect__detect_2sides</title>
<path fill="none" stroke="#000000" d="M159.17,-312.05C164.12,-303.8 170.18,-293.7 175.68,-284.54"/>
<polygon fill="#000000" stroke="#000000" points="178.78,-286.16 180.93,-275.79 172.78,-282.56 178.78,-286.16"/>
</g>
<!-- detection__detect__select_one -->
<g id="node15" class="node">
<title>detection__detect__select_one</title>
<ellipse fill="#ff9999" fill-opacity="0.698039" stroke="black" cx="424" cy="-402" rx="49.29" ry="18"/>
<text text-anchor="middle" x="424" y="-398.3" font-family="Times New Roman,serif" font-size="14.00" fill="#000000">select_one</text>
</g>
<!-- detection__detect__filter_elements&#45;&gt;detection__detect__select_one -->
<g id="edge17" class="edge">
<title>detection__detect__filter_elements&#45;&gt;detection__detect__select_one</title>
<path fill="none" stroke="#000000" d="M424,-455.7C424,-447.98 424,-438.71 424,-430.11"/>
<polygon fill="#000000" stroke="#000000" points="427.5,-430.1 424,-420.1 420.5,-430.1 427.5,-430.1"/>
</g>
</g>
</svg>

